<svg xmlns="http://www.w3.org/2000/svg" viewBox="0 0 857.52 935.78"><title>E_Entando</title><g id="Livello_2" data-name="Livello 2"><g id="Livello_1-2" data-name="Livello 1"><path d="M469,227.25c-48,0-157.94,34.13-157.94,173.67C587.94,415.18,640.07,227.25,469,227.25Z" fill="#23a8e0"/><path d="M856.51,157.87A158.14,158.14,0,0,0,698.12,0L157.87.89A158.13,158.13,0,0,0,0,159.27L.91,715.78A75.49,75.49,0,0,0,58.17,788.9l605,142.59c99.37,23.43,194.57-52.07,194.4-154.17ZM627.69,578.72l39.19,65c-47.13,36.75-139.69,71.32-222.21,71.32C282.13,715.08,190,570.86,190,426.34S291.19,137.6,458.15,137.6c299.34,0,300.58,347.65-146.34,347.65l-.56,1C302.05,600.3,479.91,686.48,627.69,578.72Z" fill="#34a3d8"/></g></g></svg>