<?xml version="1.0" encoding="UTF-8"?>
<svg width="24px" height="24px" viewBox="0 0 24 24" version="1.1" xmlns="http://www.w3.org/2000/svg" xmlns:xlink="http://www.w3.org/1999/xlink">
    <!-- Generator: Sketch 53.1 (72631) - https://sketchapp.com -->
    <title>ic_account_circle</title>
    <desc>Created with Sketch.</desc>
    <defs>
        <path d="M12,1.33333333 C6.10666667,1.33333333 1.33333333,6.10666667 1.33333333,12 C1.33333333,17.8933333 6.10666667,22.6666667 12,22.6666667 C17.8933333,22.6666667 22.6666667,17.8933333 22.6666667,12 C22.6666667,6.10666667 17.8933333,1.33333333 12,1.33333333 Z M12,5 C13.6533333,5 15,6.34666667 15,8 C15,9.65333333 13.6533333,11 12,11 C10.3466667,11 9,9.65333333 9,8 C9,6.34666667 10.3466667,5 12,5 Z M12,19.3333333 C9.52,19.3333333 7.34666667,18.1066667 6.01333333,16.2266667 C6.16,14.2933333 10.04,13.3333333 12,13.3333333 C13.96,13.3333333 17.84,14.2933333 17.9866667,16.2266667 C16.6533333,18.1066667 14.48,19.3333333 12,19.3333333 Z" id="path-1"></path>
    </defs>
    <g id="ic_account_circle" stroke="none" stroke-width="1" fill="none" fill-rule="evenodd">
        <rect id="BG" x="0" y="0" width="24" height="24"></rect>
        <mask id="mask-2" fill="white">
            <use xlink:href="#path-1"></use>
        </mask>
        <use id="Shape" fill="#535141" xlink:href="#path-1"></use>
    </g>
</svg>