<?xml version="1.0" encoding="utf-8"?>
<!-- Generator: Adobe Illustrator 16.0.0, SVG Export Plug-In . SVG Version: 6.00 Build 0)  -->
<!DOCTYPE svg PUBLIC "-//W3C//DTD SVG 1.1//EN" "http://www.w3.org/Graphics/SVG/1.1/DTD/svg11.dtd">
<svg version="1.1" id="Layer_1" focusable="false" xmlns="http://www.w3.org/2000/svg" xmlns:xlink="http://www.w3.org/1999/xlink"
	 x="0px" y="0px" width="24px" height="24px" viewBox="19.75 21.75 24 24" enable-background="new 19.75 21.75 24 24"
	 xml:space="preserve" fill="currentColor">
<path d="M33.38,28.116V21.75h-9.361c-0.623,0-1.124,0.501-1.124,1.124v21.718c0,0.623,0.501,1.124,1.124,1.124h15.727
	c0.623,0,1.124-0.501,1.124-1.124V29.24h-6.366C33.885,29.24,33.38,28.733,33.38,28.116z M36.958,38.009l-4.513,4.48
	c-0.312,0.309-0.814,0.309-1.125,0l-4.512-4.48c-0.476-0.471-0.143-1.281,0.527-1.281h3.05v-3.745c0-0.414,0.335-0.749,0.749-0.749
	h1.498c0.414,0,0.75,0.335,0.75,0.749v3.745h3.05C37.099,36.728,37.433,37.538,36.958,38.009L36.958,38.009z M40.542,26.664
	l-4.583-4.586c-0.211-0.21-0.496-0.328-0.796-0.328h-0.286v5.991h5.992v-0.285C40.869,27.161,40.751,26.875,40.542,26.664z"/>
</svg>
