<?xml version="1.0" encoding="UTF-8"?>
<svg width="24px" height="24px" viewBox="0 0 24 24" version="1.1" xmlns="http://www.w3.org/2000/svg" xmlns:xlink="http://www.w3.org/1999/xlink">
    <!-- Generator: Sketch 53.1 (72631) - https://sketchapp.com -->
    <title>ic_notifications</title>
    <desc>Created with Sketch.</desc>
    <g id="ic_notifications" stroke="none" stroke-width="1" fill="none" fill-rule="evenodd">
        <g id="Icons-/-Notification">
            <rect id="BG" x="0" y="0" width="24" height="24"></rect>
            <path d="M12,21.5 C13.1,21.5 14,20.6 14,19.5 L10,19.5 C10,20.6 10.89,21.5 12,21.5 Z M18,15.5 L18,10.5 C18,7.43 16.36,4.86 13.5,4.18 L13.5,3.5 C13.5,2.67 12.83,2 12,2 C11.17,2 10.5,2.67 10.5,3.5 L10.5,4.18 C7.63,4.86 6,7.42 6,10.5 L6,15.5 L4,17.5 L4,18.5 L20,18.5 L20,17.5 L18,15.5 Z" id="Shape" fill="#535141"></path>
        </g>
    </g>
</svg>